<?xml version="1.0" encoding="utf-8"?>
<!-- Generator: Adobe Illustrator 26.0.0, SVG Export Plug-In . SVG Version: 6.00 Build 0)  -->
<svg version="1.1" id="Livello_1" xmlns="http://www.w3.org/2000/svg" xmlns:xlink="http://www.w3.org/1999/xlink" x="0px" y="0px"
	 viewBox="0 0 780 378" style="enable-background:new 0 0 780 378;" xml:space="preserve">
<style type="text/css">
	.st0{clip-path:url(#SVGID_00000029028077374224873710000016412107354426356883_);}
	.st1{fill:#FFFFFF;}
	.st2{font-family:'QonitaSignature';}
	.st3{font-size:560.0402px;}
	.st4{fill:#0071FF;}
</style>
<g>
	<defs>
		<path id="SVGID_1_" d="M-127.74-129.73c-68.22,11.79-150.3,317.54-5.66,486.2c51.85,60.46,111,97.55,241.89,121.35
			c133.48,24.27,366.47,45.3,427.96,36.4c61.48-8.9,67.96-10.52,114.88-25.89c46.92-15.37,164.22-69.57,173.12-89.8
			c8.9-20.22,37.21-213.57,37.21-216c0-2.43-41.26-78.47-58.25-89.8S598.73,55.53,591.45,55.53c-7.28,0-299.33-8.09-299.33-8.09
			l-27.67-4.35c0,0,3.2-7.79-0.03-10.42c-3.24-2.63-8.7,2.6-8.7,2.6C152.59-7.89,120.89-16.47,120.89-16.47
			c-52.66-14.25-54.88-5.68-91.96-16.18C-72.49-61.36-92.47-135.83-127.74-129.73z"/>
	</defs>
	<clipPath id="SVGID_00000178187301865923284030000018414559007162520238_">
		<use xlink:href="#SVGID_1_"  style="overflow:visible;"/>
	</clipPath>
	<g style="clip-path:url(#SVGID_00000178187301865923284030000018414559007162520238_);">
		<text transform="matrix(0.999 0 0 1 3.5 225.5146)"><tspan x="0" y="0" class="st1 st2 st3">U</tspan><tspan x="236.34" y="0" class="st4 st2 st3">t</tspan><tspan x="321.46" y="0" class="st1 st2 st3">ili</tspan><tspan x="520.82" y="0" class="st4 st2 st3">t</tspan><tspan x="605.94" y="0" class="st1 st2 st3">y</tspan></text>
	</g>
</g>
</svg>
